# xmcd
#
# Track frame offsets:
#	150
#	19344
#	32580
#	49763
#	65686
#	82417
#	91226
#	105365
#	120583
#	134183
#	148701
#	160551
#	175399
#	190113
#	208517
#	221228
#	237242
#	251477
#	265364
#	283078
#	297852
#	312574
#
# Disc length: 4342 seconds
#
# Revision: 1
# Processed by: cddbd v1.5.2PL0 Copyright (c) Steve Scherf et al.
# Submitted via: audiograbber 1.83.01
#
DISCID=5610f416
DTITLE=Artists Carousel - Artists Carousel 006 a
DYEAR=2006
DGENRE=Country
TTITLE0=Midnight Was Turning Day  - Ken Wentworth
TTITLE1=Hard Times Getting Over You  - Aage Nordheim
TTITLE2=Don´t Blame Me - Nelson and The Stagecoach
TTITLE3=Seasons and Cycles  - Ulla Lindström
TTITLE4=I´m Thinking  - Wendell Austin
TTITLE5=Blue Blue Day  - Gunnar Almquist
TTITLE6=Love Never Lies  - James Marvell
TTITLE7=The Wayward Wind  - Slim Andrews
TTITLE8=Baby, Oh Baby - Janet Wentworth
TTITLE9=18 Wheels and A Dosent Of Roses - Florita
TTITLE10=Blue Is A Beutiful Color  - Everard Dodge
TTITLE11=Long Time No See  - Stevie Cee
TTITLE12=Broken Promise Land - Jim Russ
TTITLE13=You Are My Anchor  - Jackie Lee Carlyle
TTITLE14=Homemade Wine  - Tony Pollon
TTITLE15=Ain´t Gonna Roll This Way Again - Country Jim Palmer
TTITLE16=He Knows When You´re On My Mind Again  - Patti Mckinnon
TTITLE17=Today´s Another Day - Lillian and Manon
TTITLE18=Wall Of Shame  - The Washburns
TTITLE19=Highway Nr 10  - Lee Dodge
TTITLE20=Working Day Blues  - Tommy Joe Myers
TTITLE21=The Day They Paved The Road  - Robert Lee
EXTD=
EXTT0=
EXTT1=
EXTT2=
EXTT3=
EXTT4=
EXTT5=
EXTT6=
EXTT7=
EXTT8=
EXTT9=
EXTT10=
EXTT11=
EXTT12=
EXTT13=
EXTT14=
EXTT15=
EXTT16=
EXTT17=
EXTT18=
EXTT19=
EXTT20=
EXTT21=
PLAYORDER=
